<?xml version="1.0" standalone="no"?>
<!DOCTYPE svg PUBLIC "-//W3C//DTD SVG 20010904//EN"
 "http://www.w3.org/TR/2001/REC-SVG-20010904/DTD/svg10.dtd">
<svg version="1.0" xmlns="http://www.w3.org/2000/svg"
 width="136.000000pt" height="136.000000pt" viewBox="0 0 136.000000 136.000000"
 preserveAspectRatio="xMidYMid meet">
<metadata>
Created by potrace 1.14, written by Peter Selinger 2001-2017
</metadata>
<g transform="translate(0.000000,136.000000) scale(0.100000,-0.100000)"
fill="#000000" stroke="none">
<path d="M70 973 c-3 -250 -4 -243 20 -243 18 0 20 7 21 83 l0 82 30 -82 c24
-64 35 -83 50 -83 18 0 19 9 19 145 0 138 -1 145 -20 145 -18 0 -20 -7 -20
-82 l-1 -83 -32 80 c-21 52 -38 81 -49 83 -15 3 -18 -4 -18 -45z"/>
<path d="M250 874 l0 -144 60 0 c53 0 60 2 60 20 0 17 -7 20 -41 20 l-40 0 3
43 c3 39 5 42 33 42 23 0 31 5 33 21 2 17 -2 21 -30 20 -32 -1 -33 1 -36 41
-3 40 -2 42 25 41 47 -1 53 1 53 21 0 16 -8 19 -60 19 l-60 0 0 -144z"/>
<path d="M394 968 c3 -29 8 -62 10 -74 2 -12 7 -45 11 -75 3 -30 8 -62 11 -71
6 -20 44 -25 45 -5 0 6 2 22 5 35 2 12 6 32 8 45 3 12 5 32 5 45 2 40 18 23
24 -25 4 -27 9 -57 11 -68 3 -11 5 -26 5 -32 1 -7 10 -13 20 -13 19 0 23 15
46 170 18 117 18 120 -4 120 -12 0 -21 -6 -22 -12 0 -7 -2 -22 -4 -33 -2 -11
-7 -42 -10 -69 -3 -27 -7 -51 -9 -53 -2 -2 -9 31 -15 74 -12 80 -23 105 -40
88 -10 -10 -15 -33 -30 -125 l-7 -45 -7 40 c-4 22 -9 61 -13 88 -5 38 -10 47
-27 47 -18 0 -19 -4 -13 -52z"/>
<path d="M640 875 l0 -146 51 2 c41 2 54 7 67 27 17 27 18 88 1 109 -9 10 -9
17 -1 25 13 13 16 76 4 95 -10 16 -57 33 -93 33 l-29 0 0 -145z m78 96 c8 -5
12 -21 10 -37 -2 -21 -9 -30 -25 -32 -21 -3 -23 1 -23 37 0 41 10 50 38 32z
m12 -150 c0 -26 -5 -41 -16 -45 -29 -11 -34 -6 -34 39 0 41 2 45 25 45 22 0
25 -4 25 -39z"/>
<path d="M830 1000 c-21 -21 -23 -31 -21 -154 1 -91 15 -116 66 -116 57 0 70
26 69 147 0 98 -1 107 -23 124 -30 25 -66 24 -91 -1z m65 -30 c5 -9 9 -98 6
-163 -1 -30 -26 -46 -43 -29 -17 17 -13 183 4 193 17 11 26 11 33 -1z"/>
<path d="M980 874 c0 -137 1 -144 20 -144 18 0 20 7 20 60 0 44 4 60 14 60 8
0 20 -24 30 -60 15 -52 20 -60 41 -60 l24 0 -23 63 c-24 61 -24 63 -5 85 22
28 19 96 -5 120 -9 9 -37 17 -66 18 l-50 3 0 -145z m79 97 c34 -21 19 -81 -20
-81 -16 0 -19 8 -19 45 0 46 10 54 39 36z"/>
<path d="M1149 967 c0 -58 0 -218 0 -229 1 -5 10 -8 21 -8 18 0 20 7 21 83 l0
82 30 -82 c24 -64 35 -83 50 -83 18 0 19 9 19 145 0 137 -1 145 -20 145 -17 0
-19 -8 -22 -82 l-3 -83 -28 80 c-21 62 -32 81 -47 82 -17 2 -20 -5 -21 -50z"/>
<path d="M70 463 c0 -135 1 -143 20 -143 16 0 19 8 22 63 l3 62 33 -3 c27 -3
32 0 32 17 0 17 -6 21 -36 21 l-35 0 3 43 c3 38 6 42 29 43 42 2 59 11 53 29
-5 12 -20 15 -65 14 l-59 -2 0 -144z"/>
<path d="M220 464 l0 -144 64 0 c59 0 64 2 59 20 -4 16 -14 20 -45 20 l-39 0
3 43 c2 34 7 42 23 43 41 2 45 4 45 23 0 16 -6 19 -32 18 -32 -2 -33 0 -36 38
-3 41 -3 41 34 43 46 3 55 8 47 28 -4 11 -20 14 -64 13 l-59 -2 0 -143z"/>
<path d="M394 596 c-26 -18 -37 -67 -24 -101 5 -14 26 -32 47 -42 29 -14 39
-25 41 -47 2 -16 -1 -33 -6 -38 -13 -13 -52 0 -52 18 0 8 -9 14 -20 14 -23 0
-25 -12 -9 -43 16 -30 28 -37 65 -37 43 0 64 27 64 83 0 37 -5 49 -26 66 -15
12 -33 21 -41 21 -19 0 -33 41 -21 63 12 24 37 21 47 -6 12 -30 41 -31 41 -2
0 50 -65 81 -106 51z"/>
<path d="M510 589 c0 -11 9 -19 23 -21 21 -3 22 -7 24 -118 0 -63 2 -118 2
-122 1 -5 10 -8 20 -8 18 0 20 8 19 103 0 152 -1 147 26 147 17 0 23 5 22 18
-2 14 -14 17 -69 18 -58 1 -67 -2 -67 -17z"/>
<path d="M763 598 c-13 -6 -24 -19 -24 -30 -1 -10 -2 -23 -3 -30 -1 -6 7 -12
17 -14 9 -1 17 4 17 11 0 22 26 37 38 22 15 -18 6 -47 -40 -133 -53 -100 -52
-104 26 -104 55 0 64 2 62 18 -2 12 -14 18 -38 20 l-36 3 38 75 c41 80 45 121
14 155 -19 21 -38 23 -71 7z"/>
<path d="M915 598 c-31 -17 -32 -23 -32 -135 0 -90 2 -108 18 -124 22 -22 58
-24 84 -5 17 12 19 28 20 117 1 57 -3 113 -8 124 -18 36 -45 44 -82 23z m42
-40 c4 -7 8 -53 8 -102 1 -66 -3 -90 -13 -94 -8 -3 -17 0 -21 6 -5 8 -7 166
-2 195 2 11 19 8 28 -5z"/>
<path d="M1055 590 c-25 -28 -28 -57 -8 -64 16 -7 36 11 27 25 -2 4 4 10 13
13 9 4 20 1 24 -5 12 -20 1 -54 -41 -131 -56 -102 -54 -108 23 -108 56 0 63 2
63 20 0 16 -7 20 -37 20 l-37 0 38 75 c28 55 37 85 34 111 -5 60 -62 84 -99
44z"/>
<path d="M1208 597 c-9 -7 -20 -25 -23 -39 -5 -20 -2 -26 14 -31 16 -4 23 1
27 19 7 27 17 30 31 12 15 -19 9 -59 -10 -70 -21 -11 -22 -38 -2 -38 16 0 16
0 20 -48 1 -22 -3 -36 -12 -39 -15 -6 -35 15 -27 28 2 4 -5 9 -17 12 -27 7
-34 -14 -17 -50 10 -22 21 -29 50 -31 32 -3 39 1 51 25 16 31 15 105 -1 111
-6 2 -6 12 3 30 7 15 11 38 10 52 -2 14 -4 28 -4 32 -1 4 -8 14 -17 22 -19 19
-53 20 -76 3z"/>
</g>
</svg>
